<svg width="20" height="20" viewBox="0 0 20 20" fill="none" xmlns="http://www.w3.org/2000/svg">
<path d="M9.61695 0C7.00496 0 6.67631 0.010955 5.65123 0.0579052C4.85371 0.0741145 4.06472 0.225457 3.31781 0.505496C2.67585 0.745508 2.09454 1.12379 1.61508 1.61352C1.12579 2.09395 0.74667 2.67492 0.503931 3.31624C0.223783 4.06361 0.0729519 4.85323 0.0579052 5.65123C0.01252 6.67631 0 7.00339 0 9.61539C0 12.2274 0.010955 12.5529 0.0579052 13.5795C0.0741145 14.3771 0.225457 15.1661 0.505496 15.913C0.74669 16.5543 1.12481 17.1354 1.61352 17.6157C2.09354 18.1055 2.67462 18.4847 3.31624 18.7268C4.06382 19.0063 4.8533 19.1571 5.65123 19.1729C6.67631 19.2198 7.00339 19.2308 9.61539 19.2308C12.2274 19.2308 12.5529 19.2198 13.5795 19.1729C14.3775 19.1571 15.167 19.0063 15.9145 18.7268C16.554 18.4788 17.1348 18.1002 17.6199 17.6152C18.1049 17.1301 18.4835 16.5493 18.7315 15.9098C19.0101 15.1625 19.1614 14.3738 19.1791 13.5764C19.2245 12.5513 19.237 12.2242 19.237 9.61226C19.237 7.00026 19.2245 6.67318 19.1791 5.6481C19.1614 4.85024 19.0101 4.06099 18.7315 3.31311C18.49 2.67156 18.1113 2.09047 17.6219 1.61039C17.1428 1.1203 16.5614 0.741963 15.9192 0.502366C15.1696 0.222702 14.3779 0.0724105 13.578 0.0579052C12.5513 0.010955 12.2258 0 9.61382 0H9.61695ZM8.75307 1.73246H9.61695C12.1836 1.73246 12.4872 1.74185 13.5013 1.7888C14.111 1.79574 14.7151 1.90744 15.287 2.11902C15.7045 2.27326 16.0821 2.51928 16.3919 2.83892C16.7108 3.14923 16.9568 3.52665 17.1118 3.94381C17.3233 4.51572 17.435 5.11973 17.442 5.72948C17.4889 6.74204 17.4983 7.04721 17.4983 9.61382C17.4983 12.1804 17.4889 12.484 17.442 13.4982C17.4352 14.1074 17.3235 14.7109 17.1118 15.2823C16.9516 15.6966 16.7065 16.0729 16.3922 16.3869C16.0779 16.7009 15.7015 16.9457 15.287 17.1055C14.7155 17.3187 14.1112 17.431 13.5013 17.4373C12.4887 17.4842 12.1836 17.4936 9.61695 17.4936C7.05034 17.4936 6.74517 17.4842 5.73105 17.4373C5.12121 17.4298 4.51719 17.3176 3.94538 17.1055C3.52742 16.9519 3.1493 16.7064 2.83892 16.3872C2.51984 16.0772 2.27437 15.6997 2.12058 15.2823C1.90847 14.7105 1.79624 14.1064 1.7888 13.4966C1.74341 12.4825 1.73402 12.1789 1.73402 9.61069C1.73402 7.04252 1.74341 6.74047 1.7888 5.72635C1.7953 5.11642 1.90756 4.51224 2.12058 3.94068C2.27437 3.52329 2.51984 3.14572 2.83892 2.83579C3.14955 2.51645 3.52756 2.27049 3.94538 2.11589C4.51737 1.90443 5.12127 1.79222 5.73105 1.7841C6.6184 1.74498 6.96114 1.73246 8.75307 1.73089V1.73246ZM14.7486 3.32876C14.5201 3.32876 14.2967 3.39654 14.1068 3.52352C13.9168 3.6505 13.7688 3.83098 13.6814 4.04211C13.594 4.25324 13.5712 4.48555 13.6159 4.70964C13.6606 4.93372 13.7708 5.13952 13.9325 5.30098C14.0941 5.46244 14.3001 5.57232 14.5242 5.61671C14.7484 5.6611 14.9807 5.638 15.1917 5.55034C15.4027 5.46269 15.583 5.31441 15.7097 5.12427C15.8364 4.93413 15.9039 4.71067 15.9036 4.48217C15.9036 4.33057 15.8737 4.18046 15.8156 4.04042C15.7576 3.90038 15.6725 3.77316 15.5652 3.66604C15.4579 3.55891 15.3306 3.47398 15.1905 3.41611C15.0504 3.35824 14.9002 3.32856 14.7486 3.32876ZM9.61695 4.6778C8.64039 4.6778 7.68576 4.96738 6.87377 5.50993C6.06179 6.05248 5.42893 6.82363 5.05521 7.72585C4.6815 8.62808 4.58372 9.62086 4.77424 10.5787C4.96476 11.5365 5.43501 12.4163 6.12555 13.1068C6.81608 13.7973 7.69588 14.2676 8.65368 14.4581C9.61147 14.6486 10.6043 14.5508 11.5065 14.1771C12.4087 13.8034 13.1799 13.1705 13.7224 12.3586C14.265 11.5466 14.5545 10.5919 14.5545 9.61539C14.5541 8.30598 14.0338 7.05033 13.1079 6.12444C12.182 5.19855 10.9264 4.67821 9.61695 4.6778ZM9.61695 6.41026C10.2511 6.40933 10.8712 6.59652 11.3989 6.94813C11.9266 7.29975 12.3381 7.8 12.5814 8.38558C12.8248 8.97116 12.8889 9.61575 12.7658 10.2378C12.6426 10.8598 12.3377 11.4314 11.8897 11.8801C11.4416 12.3288 10.8705 12.6345 10.2487 12.7586C9.6268 12.8826 8.98212 12.8194 8.39618 12.577C7.81025 12.3345 7.3094 11.9237 6.95701 11.3965C6.60462 10.8694 6.41652 10.2495 6.41652 9.61539C6.41817 8.76723 6.75594 7.95431 7.35583 7.35472C7.95571 6.75513 8.7688 6.41776 9.61695 6.41652V6.41026Z" fill="black"/>
</svg>
